<?xml version="1.0" standalone="no"?>
<!DOCTYPE svg PUBLIC "-//W3C//DTD SVG 1.1//EN" "http://www.w3.org/Graphics/SVG/1.1/DTD/svg11.dtd" >
<svg>
<metadata>
Created by FontForge 20090622 at Sun Feb 21 06:38:15 2016
 By deploy user
Copyright &#194;&#169; 2013 ParaType Inc., ParaType Ltd. All rights reserved.
</metadata>
<defs>
<font id="PTRoubleDecorative" horiz-adv-x="520" >
  <font-face 
    font-family="PT Rouble Decorative"
    font-weight="400"
    font-stretch="normal"
    units-per-em="1000"
    panose-1="4 1 1 1 1 1 1 1 1 1"
    ascent="950"
    descent="-50"
    x-height="755"
    cap-height="734"
    bbox="-104 -89 925 796"
    underline-thickness="50"
    underline-position="-50"
    unicode-range="U+0020-U+044F"
  />
<missing-glyph horiz-adv-x="233" 
 />
    <glyph glyph-name=".notdef" horiz-adv-x="233" 
 />
    <glyph glyph-name=".null" horiz-adv-x="0" 
 />
    <glyph glyph-name="nonmarkingreturn" horiz-adv-x="333" 
 />
    <glyph glyph-name="space" unicode=" " horiz-adv-x="233" 
 />
    <glyph glyph-name="period" unicode="." horiz-adv-x="701" 
d="M317 254l-43 -70h170q14 0 14 -9q0 -6 -6 -14l-22 -35q-7 -10 -17 -10h-181l-8 -13q-14 -25 0 -46l-21 -33l-30 -48q-18 -25 -26 -32q-11 -11 -21 -11q-16 0 -22 19q-2 10 -2 14q0 43 59 136l9 14h-97q-14 0 -14 9q0 6 6 14l22 35q7 10 17 10h109l44 70h-136q-6 0 -8 1
q-6 3 -6 8q0 6 6 14l32 47q7 10 17 10h142l158 243q-63 0 -122 -11q-124 -22 -226 -61q12 41 40.5 87.5t53.5 66.5q76 60 288 60q163 0 216 -80q14 -22 26.5 -65.5t12.5 -71.5q0 -40 -21 -82.5t-60 -76.5q-101 -89 -287 -89h-66zM522 577l-158 -243h61q16 0 46 2
q53 4 88 15.5t69 42.5q52 47 52 97q0 30 -19 51q-18 19 -90 33q-27 3 -49 2z" />
    <glyph glyph-name="afii10017" unicode="&#x410;" horiz-adv-x="399" 
d="M339 154q0 -18 -18 -29.5t-43 -11.5q-59 0 -95 -1h-23v-70q0 -43 -8 -57t-32 -14q-23 0 -30.5 14t-7.5 61v66q-23 0 -34 4q-26 9 -26 28q0 22 26 31q14 4 34 5v72h-15h-15h-12q-36 0 -36 36q0 39 39 39h37q-3 66 -3 111q0 97 13 149q14 59 84 59q45 0 72 -5
q50 -10 95 -47q30 -25 37 -76q4 -23 4 -86q0 -41 -28 -73q-23 -26 -64 -51q-78 -46 -132 -56v-72q32 0 122 2q59 0 59 -28zM306 464q0 67 -35 90q-23 14 -79 14q-22 0 -34 -21t-12 -57q0 -76 4 -156q56 15 72 21t32 17q30 21 39 36q13 19 13 56z" />
    <glyph glyph-name="afii10019" unicode="&#x412;" horiz-adv-x="541" 
d="M175 347q88 0 163 3q94 5 101 6q2 33 -12 130l-13 72q-2 10 -4.5 17.5t-4.5 10.5t-5.5 7.5t-4.5 6.5q-9 0 -105 -3q-32 -1 -62 -1q-35 0 -45 -6t-10 -25q0 -78 2 -218zM106 271q-11 0 -21.5 0.5t-16.5 0.5h-7q-41 0 -41 18q0 54 45 58h4.5h13h18.5l4 204v30q0 43 8 61
q13 27 57 27h224h12h10.5h8.5t9 -1t7.5 -2t8.5 -2.5t9 -4.5q22 -65 42 -185t16 -145v-8t-0.5 -13t-4.5 -11.5t-11 -7.5q-18 -4 -43 -6t-65 -3.5t-60 -2.5q-48 -3 -157 -3v-19q1 -20 1 -32l-2 -46q12 1 30.5 3t58.5 4.5t59 2.5q58 -2 59 -39q2 -5 -8 -15t-20 -9l-140 -8
l-34 -2l-2 -72q0 -25 -11.5 -40.5t-32.5 -15.5q-17 0 -23 65q0 9 -0.5 28t-1.5 28q-69 -3 -83 3q-15 6 -12 22q7 33 36 35q8 0 25 2.5t28 3.5z" />
    <glyph glyph-name="afii10020" unicode="&#x413;" horiz-adv-x="556" 
d="M574 194q5 -5 5 -12q0 -12 -15 -29q-3 -3 -30 -3q-17 0 -132 5q-89 5 -161 7h-20q-23 -20 -112 -103q-73 -70 -82 -70q-26 0 -26 28q0 13 67 71l83 71q-14 0 -31.5 -0.5t-27 -1t-14.5 -0.5q-23 0 -33.5 3t-12 6t-1.5 10q0 8 5 13q10 11 171 18l123 108q-124 0 -124 86
q0 44 83 124q78 75 177 127q146 77 249 77q25 0 67 -19q61 -27 61 -69q0 -95 -145 -231q-45 -41 -121 -90q-73 -46 -88 -46q-11 0 -11 17q0 5 81 64q95 69 118 92q105 105 105 187q0 37 -67 46q-16 2 -24 2q-90 0 -213 -72q-78 -46 -140 -105q-67 -64 -73 -104
q-3 -17 18 -28q18 -9 36 -9t53 20l63 40q31 19 97 76q52 45 63 45q23 0 23 -31q0 -30 -129 -135l-208 -170q90 3 177 0q106 -5 116 -15z" />
    <glyph glyph-name="afii10021" unicode="&#x414;" horiz-adv-x="461" 
d="M337 148q0 -24 -19 -37t-47 -13q-5 2 -14.5 4.5t-31 6.5t-35.5 3q-2 0 -10.5 -1t-14.5 -2l-19 -83q-7 -32 -30 -54.5t-58 -19.5q-19 -2 -31.5 34t-12.5 69q1 24 2 26l-30 -6q-52 0 -52 33q0 44 113 75l6 25l-17 -3q-52 0 -52 33q0 40 95 70l7 31q15 61 37.5 125
t41.5 110.5t21 52.5q6 16 78 49.5t127 33.5q48 0 106.5 -49t58.5 -113q0 -75 -70 -153t-196 -128q-17 -6 -51.5 -24t-57.5 -25l-2 -10q53 7 89 7q43 0 56 -13.5t13 -53.5zM415 515q0 32 -16 46.5t-56 14.5q-23 0 -40 -8.5t-29.5 -29t-18.5 -33.5t-17 -44q-30 -77 -38 -122
q58 21 101 48q114 78 114 128z" />
    <glyph glyph-name="afii10022" unicode="&#x415;" horiz-adv-x="469" 
d="M619 507q0 -38 -38 -81q-43 -48 -101 -48q-5 0 -10 6t-5 11q0 19 30 19q29 0 59 24q35 29 35 69q0 69 -87 96q-57 17 -146 17q-61 0 -115 -26q-64 -31 -64 -87q0 -27 18 -55q9 -14 9 -23q0 -15 -14 -15t-29 35t-15 54q0 59 59 100q65 44 166 44q132 0 196 -43
q52 -34 52 -97zM306 273q-23 -56 -45 -100q-8 -16 -27 -48.5l-22 -37.5q-23 -41 -55.5 -65t-66.5 -24q-27 0 -62 26q-33 26 -33 51q0 6 1 8q4 13 14 13q7 0 19 -27q9 -16 28 -27.5t39 -11.5q38 0 74 45q27 35 66 114q21 41 38 84h-28q-8 0 -16 4.5t-8 11.5v1q3 16 48 16h18
q6 14 9 22l54 139q43 118 57 118q13 0 13 -12q0 -8 -45 -124q-33 -87 -57 -143q16 0 32 -0.5t25.5 -1t19.5 -0.5q7 0 15.5 0.5t24.5 1t29 0.5q21 0 21 -16q0 -14 -38 -14q-39 0 -85 -1.5t-57 -1.5z" />
    <glyph glyph-name="afii10024" unicode="&#x416;" 
d="M275 104l-101 1q0 -13 1 -35t1 -24q0 -32 -6 -40q-9 -12 -39 -12q-26 0 -26 24q1 5 1 14v74h-74q-43 0 -43 24q0 40 29 40l88 -3v63h-71q-43 0 -43 24q0 40 29 40l86 -2v75q0 31 1 50t1 53v85q0 76 23 79q12 3 59 5q44 3 74 3q61 0 106 -15q65 -21 98 -71q26 -40 26 -134
q0 -161 -105 -189q-22 -7 -70 -7h-74q-33 0 -67 2q-3 -11 -5 -62h101q45 0 45 -25q0 -37 -45 -37zM423 426q0 32 -5 57q-7 23 -27 46t-49 33q-7 3 -65 11q-22 2 -25 2q-14 0 -40 -3q-7 0 -14 -0.5t-11 -1t-5 -0.5v-56q0 -12 -0.5 -38.5t-0.5 -40.5v-13l2 -126q22 -2 33 -2
h16q15 0 24 1t23 1h14q5 0 16.5 -0.5t17.5 -0.5q53 -3 75 26.5t21 104.5z" />
    <glyph glyph-name="afii10025" unicode="&#x417;" horiz-adv-x="379" 
d="M360 537q0 45 -22.5 65t-71.5 20l-55 -289q64 16 106.5 76t42.5 128zM435 546q-1 -100 -65 -164.5t-167 -86.5l-18 -93h88l-6 -32h-89l-33 -170h-73l33 170h-50l6 32h50l16 86h-49l6 32h49l67 340h86q75 0 112 -26.5t37 -87.5z" />
    <glyph glyph-name="afii10026" unicode="&#x418;" horiz-adv-x="680" 
d="M609 332q-3 -7 -11 -19h-567l-2 19h580zM586 296q-1 -1 -7 -8.5t-10 -11.5h-534l-2 20h553zM552 260q-12 -11 -29 -21h-485l-2 21h516zM622 368l-5 -18h-589l-2 18h245q0 -3 0.5 -8.5t0.5 -8.5q36 4 64 17h286zM375 79q2 -18 2 -26h-379l-4 26h381zM372 115q0 -9 2 -25
h-381l-3 25h382zM444 202h-402l-2 22h458q-28 -15 -54 -22zM369 152l2 -25h-383l-2 13l62 4l-1 8h322zM378 43l-60 -3q0 -2 2 -24h-261l-1 17l-58 -2q0 1 -0.5 5t-0.5 7h379zM572 549l11 -13h-573l-1 13h563zM324 -12l-99 -9h-162l-3 28h261q2 -15 3 -19zM533 585l15 -12
h-542l-1 12h528zM288 188l2 -24h-244l-3 24h245zM471 621l22 -11h-490l-1 11h469zM626 401q0 -3 -0.5 -7.5t-0.5 -6.5h-258q11 9 16 18h243v-4zM269 405q0 -3 0.5 -9t0.5 -9h-246l-1 18h246zM268 441q0 -3 0.5 -9t0.5 -8h-248l-2 17h249zM267 477q0 -3 0.5 -8.5t0.5 -7.5
h-251l-1 16h251zM623 441l2 -17h-233q3 8 3 17h228zM350 658q19 -4 47 -11h-381q25 7 47 11h287zM614 477l5 -16h-224q0 2 -6 16h225zM14 499l-2 14h255v-14h-253zM598 513l7 -14h-236q-14 10 -32 14h261zM64 -35l-1 6h70q-16 -1 -33.5 -2.5t-26 -2.5t-9.5 -1z" />
    <glyph glyph-name="afii10027" unicode="&#x419;" horiz-adv-x="578" 
d="M205 261v-80h136v-46h-136q1 -78 9 -99t36 -23v-13h-157v13q16 1 23 8.5t10.5 32.5t4.5 81h-76v46h76v80h-76v59h76v163q0 73 -3 102.5t-10 39.5t-25 12v13h211q108 0 174.5 -50.5t66.5 -144.5t-66.5 -144t-174.5 -50h-99zM468 455q0 67 -47.5 101t-124.5 34h-91v-270h91
q76 0 124 34t48 101z" />
    <glyph glyph-name="afii10028" unicode="&#x41a;" horiz-adv-x="634" 
d="M601 441q0 -107 -73 -158t-184 -51h-58v-51h136v-73h-135q1 -57 10 -70.5t40 -16.5v-21h-264v21q23 3 30.5 17.5t9.5 69.5h-69v73h70v51h-70v130h70v109q0 76 -3.5 107t-10.5 39.5t-27 11.5v21h271q111 0 184 -51t73 -158zM425 441q0 33 -22.5 52.5t-63.5 19.5h-53v-144
h53q41 0 63.5 19t22.5 53z" />
    <glyph glyph-name="afii10029" unicode="&#x41b;" horiz-adv-x="480" 
d="M628 566q0 -79 -53 -141.5t-125.5 -92t-145.5 -29.5l-16 -84h179l-12 -34h-174l-25 -135q-9 -52 -41 -79q-13 -11 -59 -27l-8 5q22 22 40 110l25 126h-59l11 34h55l17 84h-59l11 35h55l69 339q-85 -2 -166.5 -60.5t-81.5 -137.5q0 -41 16.5 -58.5t57.5 -17.5
q-13 -46 -48 -46q-30 0 -44.5 25.5t-14.5 59.5q0 70 39 125.5t98 86.5t119 46.5t113 15.5q71 0 119.5 -13.5t70 -37.5t29.5 -47t8 -52zM553 552q0 125 -164 125l-74 -340q40 0 78 9.5t76 32t61 67t23 106.5z" />
    <glyph glyph-name="afii10030" unicode="&#x41c;" horiz-adv-x="669" 
d="M399 69l-55 -3q0 -1 2.5 -23t3.5 -25q-231 -21 -237 -21l-5 63l-53 -2l-13 100l57 3l-44 455q50 25 198 27q64 0 126 -12.5t119 -39t92 -77t34 -117.5q-1 -76 -72 -133.5t-155 -59.5q-46 0 -82 11q1 -4 2.5 -20.5t3.5 -22.5l70 5q1 -29 4 -64t4 -44zM415 441q0 26 -21 43
t-50 17q-6 0 -14 0.5t-13 0.5q-11 0 -19 -1q1 -47 2.5 -87.5t1.5 -62.5q113 18 113 90zM376 189l-44 -4q0 2 -0.5 6.5t-1.5 6.5q4 -1 21.5 -4.5t24.5 -4.5zM401 441q0 -58 -85 -73v4l-4 115h32q23 0 40 -13t17 -33zM361 52l53 3l-3 55l-7 80q88 5 161 66.5t74 140.5
q1 57 -23.5 103t-63.5 75t-91 48.5t-103.5 27t-104.5 6.5q-157 -2 -213 -33l42 -449l-56 -4q13 -99 16 -128q7 0 25.5 1t27.5 1l6 -62l268 23q-8 26 -8 46zM430 41l-53 -2q4 -31 9 -47q-261 -24 -299 -24l-6 62q-38 -2 -52 -2l-19 156l56 5l-42 444q71 37 229 39
q54 1 108 -7t107.5 -28.5t94 -51t66 -79.5t24.5 -109q-1 -81 -72 -145.5t-161 -75.5l5 -65zM386 441q0 13 -12.5 22t-29.5 9h-13h-4l3 -85q56 17 56 54z" />
    <glyph glyph-name="afii10031" unicode="&#x41d;" horiz-adv-x="469" 
d="M609 495q0 -41 -39 -85q-45 -49 -105 -49q-9 0 -17.5 9.5t-8.5 17.5q0 14 11.5 22t28.5 8q25 0 50 20h-1q30 25 30 57q0 57 -76 81l1 -1q-54 17 -136 17q-54 0 -105 -24q-55 -28 -55 -73q0 -22 16 -47v1q10 -14 10 -28q0 -26 -25 -26q-20 0 -38 40q-15 36 -15 56
q0 64 61 105q65 44 165 44q130 0 194 -43q54 -36 54 -102zM347 261q-6 0 -19.5 -0.5t-20.5 -0.5q-25 -58 -40 -88l-32 -56l-16 -27q-24 -42 -57 -66.5t-69 -24.5q-20 0 -32 5.5t-34 21.5q-36 27 -36 58q0 9 2 12v-1q6 21 24 21q13 0 28 -33v1q7 -12 23 -21.5t31 -9.5
q32 0 62 38q22 30 61 107q20 40 29 63h-9q-13 0 -24 8.5t-11 21.5q5 25 58 25h9l6 14l3 8v-1q0 1 17 44l31 81q45 120 65 120q24 0 24 -23q0 -10 -44 -122l-22 -57.5t-25 -63.5q4 0 11 -0.5t10 -0.5q6 0 17 -0.5t18 -0.5q17 0 31 1q5 0 16.5 0.5t18.5 0.5q16 0 23.5 -8
t7.5 -19q0 -10 -13 -17.5t-34 -7.5q-38 0 -88 -2z" />
    <glyph glyph-name="afii10032" unicode="&#x41e;" horiz-adv-x="468" 
d="M264 184q0 -16 -48 -23q-2 0 -94 -11h-6q-41 -98 -59 -131t-36 -33q-17 0 -21 7q-3 6 -4 23q-2 39 38 124q-8 -1 -20 -1q-43 0 -43 25q0 20 25 30q24 9 72 10l44 78q-30 9 -45 18q-16 10 -15 25q1 8 10.5 17t21.5 12q13 2 63 -12l76 119q35 52 86 111.5t85 86.5
q92 74 148 74q37 0 71 -25q34 -24 34 -65q0 -64 -31 -140t-75 -120q-56 -56 -123.5 -80.5t-155.5 -36.5q-38 -6 -88 3q-10 -16 -35 -64l77 1q28 0 38 -4.5t10 -17.5zM399 578q-75 -69 -188 -249q33 -3 63 1q72 10 127.5 32t99.5 72q35 40 55 95.5t20 106.5q0 29 -40 29
q-44 0 -137 -87z" />
    <glyph glyph-name="afii10033" unicode="&#x41f;" horiz-adv-x="467" 
d="M535 650q0 -83 -83 -172q-61 -66 -164 -130q-28 -18 -119 -66q0 -33 -1 -59h31q22 0 50 4q73 10 87 10q30 0 34 -12q10 -29 -63 -45q-49 -12 -119 -12h-21v-12q0 -54 16 -118q0 -15 -5 -27q-8 -14 -25 -14q-25 0 -34.5 37t-9.5 111v25q-34 -2 -77 3.5t-43 13.5
q0 22 10 29q8 7 108 7v49q-4 2 -27 -2t-31 -4q-36 3 -36 36q0 6 20 12t45 11.5t31 8.5q1 6 1 47v52v147q0 82 1 89q-59 -10 -73 -13q-39 -10 -56 -37l-16 -30q-8 -12 -23 -12q-18 0 -29 13t-11 31q0 44 38 64q23 11 115 28q118 21 294 21q65 0 113 -14q72 -22 72 -70z
M475 632q0 52 -130 52q-36 0 -93 -3q-60 -3 -82 -7q0 -179 1 -320l58 26q39 19 71 42q90 64 120 97q55 58 55 113z" />
    <glyph glyph-name="afii10034" unicode="&#x420;" horiz-adv-x="664" 
d="M472 277q0 -14 -11.5 -19t-37.5 -5q-15 1 -32 1l-59 -4q9 -32 22 -66q28 -75 28 -80q0 -20 -28 -44q-27 -24 -55 -24q-66 0 -84 204q-34 -5 -72 -13q-48 -9 -50 -9q-8 -1 -16 -1q-6 0 -6 15q0 9 52 27q54 18 89 26q-2 66 -2 109v17h-80h-19.5t-18.5 -0.5t-14.5 -1
t-10.5 -0.5h-4q-8 -1 -16 -1q-6 0 -6 15q0 8 70 19q17 3 49 5.5t49 5.5l-1 45q-1 60 15 93q17 31 69 50q8 4 17 4q20 0 20 -38q0 -9 -6 -71q-5 -67 -5 -81q9 -1 27 -1q85 0 169 35q88 37 88 85q0 44 -84 84q-117 56 -293 51q-39 -1 -76.5 -12.5t-64 -27.5t-47.5 -31.5
t-33.5 -25.5t-15.5 -10q-17 4 -24 16q-10 18 -9 26q3 37 109.5 74.5t147.5 37.5q64 0 148 -9q86 -9 156 -27q99 -27 143 -57q53 -36 53 -93q0 -35 -65 -76q-63 -39 -137 -56q-52 -12 -114 -18q-61 -6 -86 -6q0 -66 9 -112q24 2 76 2q41 0 59 -5t18 -22z" />
    <glyph glyph-name="afii10035" unicode="&#x421;" horiz-adv-x="680" 
d="M378 43l-60 -3q0 -1 2.5 -24.5t3.5 -27.5q-254 -23 -260 -23l-6 68l-58 -2l-14 109l62 4l-48 496q54 27 218 29q71 1 139 -12.5t130.5 -43t101 -84.5t37.5 -128q-1 -82 -79.5 -145t-170.5 -65q-49 -1 -90 12q1 -4 2.5 -22t3.5 -25l77 5q2 -30 5 -67t4 -51zM396 449
q0 29 -23 47.5t-55 18.5q-42 0 -51 -1q2 -74 5 -163q124 18 124 98z" />
    <glyph glyph-name="afii10036" unicode="&#x422;" horiz-adv-x="680" 
d="M396 449q0 -80 -124 -98q-3 89 -5 163q22 2 25 2q4 0 12.5 -0.5t13.5 -0.5q32 0 55 -18.5t23 -47.5zM318 40l60 3q-1 14 -4 51t-5 67l-77 -5q-2 7 -3.5 25t-2.5 22q41 -13 90 -12q92 2 170.5 65t79.5 145q1 73 -37.5 128t-101 84.5t-130.5 43t-139 12.5q-164 -2 -218 -29
l48 -496l-62 -4l14 -109l58 2l6 -68l260 23q-1 4 -3.5 27.5t-2.5 24.5zM429 -6l-59 -3q2 -28 9 -51q-276 -25 -303 -25l-3 32q-26 -2 -27 -2l-3 37q-12 -1 -31 -1l-4 30h-26l-19 147l63 5l-47 489q70 35 239 37q109 1 211 -30.5t160 -98.5q88 -75 87 -189q-1 -87 -80.5 -155
t-177.5 -75l7 -83zM379 460l-3 -11q0 -44 -57 -66l-2 82l31 1z" />
    <glyph glyph-name="afii10037" unicode="&#x423;" horiz-adv-x="620" 
d="M587 446q0 -99 -67.5 -151.5t-182.5 -52.5h-86v-61h136v-59h-136q1 -71 8.5 -87t37.5 -18v-17h-210v17q16 3 23 8.5t11.5 27t5.5 69.5h-72v59h72v61h-72v98h72v136q0 74 -3.5 105.5t-10.5 40t-26 11.5v17h250q115 0 182.5 -52.5t67.5 -151.5zM461 446q0 53 -36 79.5
t-95 26.5h-79v-212h79q59 0 95 26.5t36 79.5z" />
    <glyph glyph-name="afii10038" unicode="&#x424;" horiz-adv-x="447" 
d="M270 135q0 -18 -77 -35q-41 -9 -87 -12q-64 -102 -83 -102q-9 0 -15.5 8.5t-6.5 21.5q0 14 30 69h-15q-38 0 -51 7t-13 25q0 32 110 32h4q59 109 66 125q30 66 60 143q61 154 72 172q18 29 33 29q24 0 24 -34q0 -18 -9 -43l-23 -65q51 62 117 122q88 80 120 80
q23 0 36.5 -17t13.5 -49q0 -80 -45 -174q-65 -134 -165 -212q-58 -46 -99 -46q-16 0 -36 20q-25 25 -25 56l-59 -98q48 5 59 5q64 0 64 -28zM513 568v21q0 13 -11 13q-12 0 -80 -69q-63 -67 -88 -97q2 -16 2 -18q0 -27 -22 -58q-49 -67 -49 -86q0 -5 5.5 -16.5t10.5 -11.5
q47 0 105 72q48 60 89 144q38 79 38 106z" />
    <glyph glyph-name="afii10039" unicode="&#x425;" horiz-adv-x="403" 
d="M295 506q0 59 -24.5 82.5t-78.5 23.5v-275q49 13 76 62.5t27 106.5zM44 284v42h54v334h106q85 0 131 -35t46 -119q0 -83 -52.5 -140.5t-136.5 -77.5v-81h91v-42h-91v-165h-94v165h-54v42h54v77h-54z" />
    <glyph glyph-name="afii10040" unicode="&#x426;" horiz-adv-x="598" 
d="M565 452q0 -95 -65.5 -147.5t-178.5 -52.5h-95v-71h136v-52h-136q1 -52 4.5 -75t12 -30.5t28.5 -8.5v-15h-181v15q23 3 30.5 21.5t8.5 92.5h-74v52h74v71h-74v78h74v151q0 73 -3.5 103.5t-10.5 39.5t-25 12v15h231q114 0 179 -52.5t65 -146.5zM466 452q0 61 -44 91.5
t-108 30.5h-88v-244h88q64 0 108 30.5t44 91.5z" />
    <glyph glyph-name="afii10041" unicode="&#x427;" 
d="M71 195l3 -1l-15 4l12 -3l-16 6q-6 -6 -8 -12q-10 8 -12 8q-6 2 -17 2q0 9 -8 17l5 2q0 14 2 14l1 2v5v7q9 2 12 5q6 3 4 6q-3 1 -3 3l6 2l12 6l-5 3l6 -2l-1 -1q21 -12 47 -12h20l7 14q7 13 21 19q-2 3 -6.5 8t-6.5 8q-4 4 -8 6l-3 4l12 14l-20 20q2 3 5 10q5 17 5 31
q0 12 -4 27t-4 28l2 35l-5 15q-1 3 5 13.5t6 12.5l-10 16q16 7 23 16l-8 7q-4 4 -4 10q0 3 11 22q9 21 13 33q39 -12 54 -23q0 1 1.5 4t2 5t2 4t3.5 2.5t4 0.5q7 -1 9 -16q21 7 35 7q8 0 28 -2t23 -2q4 -1 14 -1h14q11 0 13 5q24 -19 47 -19q16 0 22 -2q1 0 5 -9.5t9 -11.5
l29 -13q5 -5 7 -11l11 -22q10 -10 13 -12q6 -7 6 -16q0 -7 -1 -9q-5 -18 -11 -58q-1 -5 2 -29q8 -64 8 -68q0 -3 -2 -11q-12 -16 -20 -32l-15 -27q-20 -27 -39 -37t-58 -14q-4 0 -21 -3.5t-23 -3.5q-14 0 -38 2q-12 -5 -21 -5q-3 0 -20 2t-24 2q-3 0 -14.5 -2.5t-16.5 -2.5
l-12 3l-12 -20q20 -16 20 -38v-1h12q30 10 43 10q45 0 57 -16q1 -1 1 -5l2 -5q-2 -6 -2 -8v-4q-28 -18 -83 -18h-31v-40q0 -18 -1 -23q0 -10 -2 -26q-20 0 -33 -16l-55 39q8 38 11 57v1l-13 -6l6 5q-8 6 -13 6l-4 -3q-4 -3 -11 -3q-18 3 -22 6q-23 5 -23 10q0 3 -3 7l-4 4
v22q6 -2 14 -2q0 4 5 7q12 10 13 15l17 -7q19 -7 24 -4v3l4 4q4 2 14 3l11 1q-10 13 -10 31q0 6 1 8q-2 -1 -7 -8h-9l-5 13zM432 418q0 9 6 27q4 11 4 17q0 13 -10 40l-10 12q-10 13 -12 27q-3 4 -11 4h-20l-21.5 7.5l-24.5 8.5q-20 4 -69 4h-12q-8 4 -17 4q-34 0 -47 -13
q-5 -4 -2 -13l3 -9q-1 -3 -9 -3q-5 0 -15 -13q11 -6 17 -30q0 -4 -3.5 -16.5t-3.5 -20.5q7 -15 7 -26l-3 -24l5 -17q3 -8 1 -12.5t-16 -22.5q7 -1 23 -8v-15q-11 -2 -16 -5l-11 -9v-12l15 -11v-12l-11 -7l19 -7h5q13 0 33 -4l1 -1h3q4 4 16 4q14 0 27 -6q33 0 66 5q7 1 21 7
q7 2 19 10q16 7 20 13t4 20l13 5q2 -2 11 -5q0 1 -1 9t-1.5 13.5t0.5 10.5q13 30 13 31q1 7 -0.5 16.5t-3.5 17.5t-2 9z" />
    <glyph glyph-name="afii10042" unicode="&#x428;" horiz-adv-x="556" 
d="M552 182q0 -12 -15 -29q-3 -3 -30 -3q-17 0 -132 5q-86 5 -129 6l-11 -9l-55 -45l-65 -54l-23 -21l-24 -22t-20.5 -14.5t-20.5 -6.5q-11 0 -18.5 7.5t-7.5 20.5q0 4 9 14t30.5 30.5l27.5 26.5q17 17 84 72q-4 0 -12 -0.5t-13 -0.5q-15 0 -33 -0.5t-28 -1t-15 -0.5
q-23 0 -33.5 3t-12 6t-1.5 10q0 8 5 13q11 11 199 19l136 117h-36q-33 0 -64.5 21.5t-31.5 52.5q0 53 77 126q79 76 177 127q146 77 253 77q33 0 77.5 -29t44.5 -62q0 -36 -33.5 -99.5t-80.5 -116.5l-20 -21.5t-22.5 -20.5l-20 -16t-23 -16.5l-20 -13.5t-23 -14.5
t-21.5 -13.5q-70 -44 -88 -44q-11 0 -11 29q0 5 81 64l46.5 32.5t39.5 28.5t32 31q105 112 105 191q0 25 -19.5 46.5t-55.5 21.5q-96 0 -229 -76q-108 -64 -170 -121q-67 -64 -65 -114q4 -47 82 -47q5 0 11 2.5t11 5.5l15 9t16 9q7 4 69 48q26 18 85 70l19 17.5t16.5 15
l12.5 10.5t9.5 7.5t5.5 2.5q29 0 29 -20q0 -30 -135 -151l-185 -164q42 1 127 -1q106 -5 116 -15q5 -5 5 -12z" />
    <glyph glyph-name="afii10043" unicode="&#x429;" horiz-adv-x="379" 
d="M282 509q0 60 -28.5 86.5t-85.5 26.5v-289q56 15 85 67t29 109zM44 288v32h50v340h87q90 0 133 -33.5t43 -117.5q0 -85 -53 -140t-136 -74v-93h88v-32h-88v-170h-74v170h-50v32h50v86h-50z" />
    <glyph glyph-name="afii10044" unicode="&#x42a;" horiz-adv-x="403" 
d="M378 542q0 38 -21.5 54t-64.5 16l-53 -275q60 15 99.5 77t39.5 128zM466 544q0 -94 -67 -162.5t-169 -93.5l-16 -81h90l-8 -42h-91l-32 -165h-94l32 165h-54l8 42h54l15 77h-54l8 42h54l66 334h106q77 0 114.5 -25t37.5 -91z" />
    <glyph glyph-name="afii10045" unicode="&#x42b;" horiz-adv-x="410" 
d="M279 121q0 -30 -40 -30q-55 0 -120 -3q-1 -20 -1 -74q0 -21 -7 -29t-23 -8q-22 0 -29 13l-9 95q-53 2 -53 36q0 25 48 33q1 10 -0.5 34t-1.5 30q-5 -1 -17 -1q-23 0 -27 13q-3 14 -3 17q0 29 44 43v15q-1 57 -1 137q0 78 37 148q51 96 145 96q67 0 113 -57
q52 -63 47 -134q-15 -192 -270 -257q2 -36 5 -81h127q17 0 26.5 -10.5t9.5 -25.5zM107 328q0 -14 1 -20q41 11 71.5 23.5t63.5 34t52 54.5t20 75q1 39 -36 87q-36 46 -74 46q-44 0 -72 -61q-28 -60 -28 -152q0 -33 2 -87z" />
    <glyph glyph-name="afii10047" unicode="&#x42d;" 
d="M275 104l-101 1q0 -13 1 -35t1 -24q0 -32 -6 -40q-9 -12 -39 -12q-26 0 -26 24q1 5 1 14v74h-74q-43 0 -43 24q0 40 29 40l88 -3v63h-71q-43 0 -43 24q0 40 29 40l86 -2v75q0 31 1 50t1 53v85q0 76 23 79q12 3 59 5q44 3 74 3q61 0 106 -15q65 -21 98 -71q26 -40 26 -134
q0 -161 -105 -189q-22 -7 -70 -7h-74q-33 0 -67 2q-3 -11 -5 -62h101q45 0 45 -25q0 -37 -45 -37zM423 426q0 32 -5 57q-7 23 -27 46t-49 33q-7 3 -65 11q-22 2 -25 2q-14 0 -40 -3q-7 0 -14 -0.5t-11 -1t-5 -0.5v-56q0 -12 -0.5 -38.5t-0.5 -40.5v-13l2 -126q22 -2 33 -2
h16q15 0 24 1t23 1h14q5 0 16.5 -0.5t17.5 -0.5q53 -3 75 26.5t21 104.5z" />
    <glyph glyph-name="afii10049" unicode="&#x42f;" 
d="M71 195l3 -1l-15 4l12 -3l-16 6q-6 -6 -8 -12q-10 8 -12 8q-6 2 -17 2q0 9 -8 17l5 2q0 14 2 14l1 2v5v7q9 2 12 5q6 3 4 6q-3 1 -3 3l6 2l12 6l-5 3l6 -2l-1 -1q21 -12 47 -12h20l7 14q7 13 21 19q-2 3 -6.5 8t-6.5 8q-4 4 -8 6l-3 4l12 14l-20 20q2 3 5 10q5 17 5 31
q0 12 -4 27t-4 28l2 35l-5 15q-1 3 5 13.5t6 12.5l-10 16q16 7 23 16l-8 7q-4 4 -4 10q0 3 11 22q9 21 13 33q39 -12 54 -23q0 1 1.5 4t2 5t2 4t3.5 2.5t4 0.5q7 -1 9 -16q21 7 35 7q8 0 28 -2t23 -2q4 -1 14 -1h14q11 0 13 5q24 -19 47 -19q16 0 22 -2q1 0 5 -9.5t9 -11.5
l29 -13q5 -5 7 -11l11 -22q10 -10 13 -12q6 -7 6 -16q0 -7 -1 -9q-5 -18 -11 -58q-1 -5 2 -29q8 -64 8 -68q0 -3 -2 -11q-12 -16 -20 -32l-15 -27q-20 -27 -39 -37t-58 -14q-4 0 -21 -3.5t-23 -3.5q-14 0 -38 2q-12 -5 -21 -5q-3 0 -20 2t-24 2q-3 0 -14.5 -2.5t-16.5 -2.5
l-12 3l-12 -20q20 -16 20 -38v-1h12q30 10 43 10q45 0 57 -16q1 -1 1 -5l2 -5q-2 -6 -2 -8v-4q-28 -18 -83 -18h-31v-40q0 -18 -1 -23q0 -10 -2 -26q-20 0 -33 -16l-55 39q8 38 11 57v1l-13 -6l6 5q-8 6 -13 6l-4 -3q-4 -3 -11 -3q-18 3 -22 6q-23 5 -23 10q0 3 -3 7l-4 4
v22q6 -2 14 -2q0 4 5 7q12 10 13 15l17 -7q19 -7 24 -4v3l4 4q4 2 14 3l11 1q-10 13 -10 31q0 6 1 8q-2 -1 -7 -8h-9l-5 13zM432 418q0 9 6 27q4 11 4 17q0 13 -10 40l-10 12q-10 13 -12 27q-3 4 -11 4h-20l-21.5 7.5l-24.5 8.5q-20 4 -69 4h-12q-8 4 -17 4q-34 0 -47 -13
q-5 -4 -2 -13l3 -9q-1 -3 -9 -3q-5 0 -15 -13q11 -6 17 -30q0 -4 -3.5 -16.5t-3.5 -20.5q7 -15 7 -26l-3 -24l5 -17q3 -8 1 -12.5t-16 -22.5q7 -1 23 -8v-15q-11 -2 -16 -5l-11 -9v-12l15 -11v-12l-11 -7l19 -7h5q13 0 33 -4l1 -1h3q4 4 16 4q14 0 27 -6q33 0 66 5q7 1 21 7
q7 2 19 10q16 7 20 13t4 20l13 5q2 -2 11 -5q0 1 -1 9t-1.5 13.5t0.5 10.5q13 30 13 31q1 7 -0.5 16.5t-3.5 17.5t-2 9z" />
    <glyph glyph-name="afii10065" unicode="&#x430;" horiz-adv-x="631" 
d="M128 462v-104h-84v-31h84v-84h-84v-31h84v-181h-74v-31h299v31h-80v181h146v31h-146v84h79q131 0 188.5 46t57.5 142q0 90 -65 142t-174 52q-118 0 -174.5 -69.5t-56.5 -177.5zM351 358h-78v107q0 54 2 84.5t9.5 62t24 45.5t43.5 14q82 0 82 -154q0 -159 -83 -159z
M123 363v99q0 52 13 96.5t40.5 80t74 55.5t108.5 20q147 0 211 -89q79 -55 79 -155q0 -98 -58.5 -145.5t-192.5 -47.5h-74v-29h100v-41h46v-45h-146v-126h34v-41h46v-45h-309v45h-46v41h74v126h-38v45h-46v41h84v29h-38v45h-46v41h84zM429 517q0 68 -14 102q-10 2 -17 2
q-20 0 -34.5 -10.5t-22 -26t-11.5 -44t-5 -54t-1 -66.5v-57h27q78 0 78 154z" />
    <glyph glyph-name="afii10066" unicode="&#x431;" horiz-adv-x="613" 
d="M290 209q19 0 32 -1.5t26 -10.5t13 -25q-1 -27 -14 -33.5t-49 -7.5q-14 0 -40 0.5t-38 0.5h-60q-8 -42 -8 -78q0 -38 -9.5 -53.5t-42.5 -10.5q-17 2 -25 13.5t-9 20.5t-1 30q0 33 10 78h-19q-23 0 -35.5 9t-12.5 21q0 24 8 33t27 9q24 0 55 1l23 66q-14 10 -17 32.5
t4 30.5q18 26 50 42q13 39 45 86t81.5 94t121.5 78.5t151 32.5q64 1 109.5 -44.5t45.5 -124.5q0 -57 -30.5 -103.5t-76.5 -74.5t-105 -46.5t-111.5 -26t-101.5 -7.5q-33 0 -96 9q-9 -28 -13 -42q49 2 112 2zM625 500q1 49 -22.5 67.5t-63.5 18.5q-39 0 -96 -23t-101 -60
q-73 -62 -121 -173q40 -10 76 -10q326 21 328 180z" />
    <glyph glyph-name="afii10067" unicode="&#x432;" horiz-adv-x="631" 
d="M273 358h78q83 0 83 159q0 154 -82 154q-27 0 -43.5 -14t-24 -45.5t-9.5 -62t-2 -84.5v-107zM128 358v104q0 108 56.5 177.5t174.5 69.5q109 0 174 -52t65 -142q0 -96 -57.5 -142t-188.5 -46h-79v-84h146v-31h-146v-181h80v-31h-299v31h74v181h-84v31h84v84h-84v31h84z
" />
    <glyph glyph-name="afii10068" unicode="&#x433;" horiz-adv-x="624" 
d="M128 313v316q0 10 -9 10h-51v21h283q101 0 165 -55.5t64 -150.5q0 -94 -64 -149.5t-165 -55.5h-58q-13 0 -22 9.5t-9 23.5q0 15 9.5 23t21.5 8h52q78 0 120.5 38t42.5 103q0 70 -49 106t-114 36h-147v-453h163v-32h-163v-111h-70v111h-80v32h80v106h-64q-13 0 -22 9.5
t-9 23.5q0 15 9.5 23t21.5 8h64z" />
    <glyph glyph-name="afii10069" unicode="&#x434;" 
d="M437 568q0 101 -75 101q-34 0 -51 -17t-19 -41v-4q0 -24 18 -24q4 0 10.5 2.5t10.5 4.5l4 3q11 -15 11 -27q-1 -45 -45 -45q-23 0 -36.5 18.5t-13.5 47.5q0 69 55.5 109t115.5 40q80 0 121 -44.5t41 -121.5q0 -130 -82 -210t-209 -80h-63l-13 -59h163q-22 -56 -72 -56
h-103q-8 -40 -8 -54q0 -24 5 -41t10 -22l5 -6q-17 -17 -28.5 -26.5t-36.5 -19.5t-55 -10q-60 0 -60 67q0 38 17 112h-53q21 54 66 56l14 59h-61q11 27 26.5 41.5t45.5 14.5l63 261q9 38 10 72q0 19 -5 31q75 37 166 37l21 -1q-40 -16 -64 -41q-23 -25 -34.5 -49t-11.5 -65
q0 -20 8.5 -36t17.5 -23t25 -16l-42 -170h28q54 0 92.5 37t54.5 88t16 107z" />
    <glyph glyph-name="afii10070" unicode="&#x435;" horiz-adv-x="535" 
d="M545 463q0 -67 -53 -142t-131 -124t-147 -48l3 -21q10 1 32 4.5l40.5 6.5t24.5 3q13 0 21 -1t17.5 -5.5t14.5 -15.5t5 -28q0 -23 -55 -43q-60 -18 -81 -21q6 -30 6 -39q0 -11 -12 -20.5t-24 -9.5q-59 0 -80 58q-26 -2 -40 -1q-21 1 -35 14t-14 34q0 43 77 54q-1 11 -1 30
q-43 7 -56 11q-22 9 -28 35q-5 39 27 52q10 3 29 3q6 0 16 -0.5t13 -0.5q0 142 14 184q14 41 44 41q20 0 41.5 -19t21.5 -39q0 -5 -5 -16.5t-8 -27.5q-5 -29 -5 -78q0 -37 1 -42l17 3q54 7 131 73.5t77 123.5q0 85 -165 85q-146 0 -168 -22q-15 -13 -25 -41.5l-16.5 -48.5
t-15.5 -20q-45 0 -59 30q-11 31 16 84q23 48 39 64q58 60 217 60q45 0 98.5 -10.5t86.5 -28.5q42 -23 68 -62.5t26 -77.5z" />
    <glyph glyph-name="afii10072" unicode="&#x436;" horiz-adv-x="485" 
d="M468 542q0 -101 -73.5 -161.5t-209.5 -74.5v-72q45 3 85 3q26 0 26 -12t-20.5 -25.5t-54.5 -18.5l-36 -3q1 -32 2.5 -61.5t2.5 -47t1 -24.5q0 -22 -27.5 -36.5t-47.5 -14.5q-12 0 -14.5 32.5t-2.5 145.5v4h-31q-55 0 -55 10q0 20 22.5 30.5t46.5 11.5l17 1v74h-37
q-52 0 -52 12q0 34 67 37h22v62q0 135 -5 185q-1 9 -4 20t-3 17q0 12 103 40q54 14 109 14q169 0 169 -148zM380 509q0 58 -32 85.5t-85 27.5l-79 -4q1 -35 1 -219v-47q53 0 94 13t71 50t30 94z" />
    <glyph glyph-name="afii10073" unicode="&#x437;" horiz-adv-x="440" 
d="M40 77q-10 -1 -30 26t-22 51q0 14 5 14q1 0 3 -0.5t4 -0.5t18 2t17 2h39v82q0 27 1 80t1 78q0 51 -1 100.5t-1 72.5q0 25 25 32t101 7q71 0 117 -33q98 -69 98 -137q0 -67 -32 -107t-94 -76q-24 -14 -49.5 -22t-38 -10t-12.5 -5q0 -4 0.5 -10.5t0.5 -8.5q0 -19 -1 -36h11
q3 0 19 2t28 3q53 4 77 4q27 0 32 -2q12 -6 22.5 -24t11.5 -32v-8q0 -21 -8 -21q-3 0 -106 -12h-39l-45 -3q1 -8 1 -25q0 -15 -1.5 -28t-3.5 -20t-2 -8q0 -4 3 -9t3 -9q0 -26 -29 -26q-28 0 -55.5 11.5t-27.5 33.5q0 2 -0.5 11l-1.5 26.5t-1 36.5zM187 359q0 -12 10 -12
q34 0 62.5 27.5t28.5 74.5q0 28 -17 46.5t-49 18.5h-17q-13 0 -15.5 -5t-2.5 -24q0 -7 1 -23t1 -23q0 -8 0.5 -25.5t0.5 -27.5q0 -8 -1.5 -17t-1.5 -10z" />
    <glyph glyph-name="afii10074" unicode="&#x438;" horiz-adv-x="656" 
d="M277 198h97l51 -2l3 -3l2 -10l-5 -18l-4 -20l-5 -17l-13 -11h-143l-3 -13l3 -6l-4 -16l5 -8l-9 -40l7 -7l-1 -13l-11 -14l-12 -1l-5 3l-3 -3l-3 3l-13 -3l1 -3l-2 1l-26 5l-4 -3l-35 -2l-2 2l-9 3l-1 11l6 12l-5 6l12 38l9 42l-28 -3l-47 -5l-3 1l-9 -1l-11 13l6 22l2 18
l15 35l5 6l53 -5l28 2l18 82h-79l-7 8l2 12l3 35l2 12l5 8l3 1l37 2h50l9 26l-2 21l9 28l8 11l3 42l5 8l-2 2l3 3l1 10l6 8l8 2v12l24 111l3 39l9 18l4 3l75 6l37 2h142l-1 -3l36 -7l11 -3l13 -6l17 -15l8 -13l6 -8l8 -9l-2 -3l5 -1l10 -21l3 2l10 -14l-2 -15l-3 -3l-4 -24
h3l-1 -12l-3 -2l-7 -19l-15 -34l-8 -32l-10 -21l-3 -3l1 -5l-6 -11l-7 -10v-8l-3 -3l-4 -9l-10 -9l1 -2l-7 -11l-6 -6l1 -2l-17 -14l3 -1l-4 -5l-27 -14l-9 -5l-40 -26l-19 -5l-8 -3l-25 -9l-7 -4l-14 -3l-15 -3h-30l-18 -4l-13 -3l-6 -5l-4 5l-7 -5h-17l-4 -3l-14 -57z
M471 614l-6 1l-8 4l-64 -8l-16 -3l-16 -57l-12 -56l-2 -13l-13 -49l-7 -41l-5 -31l5 -3l22 3l41 9l16 7l3 4l11 2l10 3l11 2l35 16l9 7l4 9l5 8l10 17l2 20l11 20l3 16l4 3l3 28l1 3l1 3h2v6h-3l5 23l-6 7l1 6l-9 11l-3 3l-1 9l-4 2l2 1h-30l-13 6z" />
    <glyph glyph-name="afii10075" unicode="&#x439;" horiz-adv-x="551" 
d="M68 232h82l15 46h-172q12 13 22.5 20t41.5 13.5t81 6.5q26 0 41 -1q45 136 110 291q34 26 80 26q-66 -137 -132 -318q72 2 128.5 24t90.5 57t51 76t17 85q0 51 -39 81.5t-103 30.5q-108 0 -168.5 -29t-112.5 -105q-6 -9 -9 -24t-8 -22.5t-18 -7.5q-23 0 -23 22
q0 20 27.5 53.5t74.5 68.5t123 60.5t159 25.5q173 0 173 -130q0 -107 -110.5 -197t-266.5 -103l-17 -50h104q-30 -44 -96 -44h-22q-16 -64 -16 -88q0 -7 5.5 -21t5.5 -19q0 -4 -6.5 -19t-11.5 -21q-27 -36 -56 -36q-8 0 -14.5 7.5t-6.5 23.5q0 51 42 173h-157q17 26 36 35
t55 9z" />
    <glyph glyph-name="afii10076" unicode="&#x43a;" horiz-adv-x="552" 
d="M552 477q0 -68 -55.5 -145t-136.5 -125.5t-149 -41.5l4 -44q6 0 53 7.5t56 7.5q15 0 23.5 -1.5t17 -11t8.5 -28.5q0 -6 -3 -11t-12.5 -9.5t-14.5 -6.5t-19 -8q-65 -21 -93 -23q8 -42 8 -48q0 -8 -9 -14.5t-18 -6.5q-58 0 -74 61q-43 -3 -48 -3q-18 2 -30 12.5t-12 27.5
q0 38 80 47q-2 36 -2 49l-26 4q-25 3 -38 8q-17 6 -22 28q-5 31 22 42q11 4 38 3t28 -1q0 14 -0.5 44t-0.5 47t1 42.5t4 40t8.5 29.5t14.5 22t22 7q17 0 36 -16.5t19 -33.5q0 -5 -5 -17t-8 -27q-5 -30 -5 -82q0 -45 2 -52q2 0 27 2q58 7 141 79t83 134q0 51 -50 74.5
t-130 23.5q-151 0 -181 -26q-15 -13 -23.5 -41.5t-14 -49t-13.5 -20.5h-5h-7.5t-6.5 0.5t-7.5 1.5t-7 2.5t-7 4t-5.5 6.5t-5 9t-3 9.5t-1 10v9t2 9.5t2.5 8.5t3.5 9t3.5 8t4 8t3.5 7.5l16.5 34t24 30t43 32t67.5 18t104 9q44 0 98.5 -10.5t87.5 -28.5q41 -22 66.5 -60.5
t25.5 -75.5z" />
    <glyph glyph-name="afii10077" unicode="&#x43b;" horiz-adv-x="750" 
d="M526 282q0 -17 -42.5 -25.5t-77.5 -8.5q-77 0 -199 10q-85 -128 -164 -219q-36 -41 -66 -61.5t-45 -20.5q-20 0 -22 26q0 8 10 25q8 13 21 15q9 0 15 -5q5 -5 13 -5q9 0 21 8t27 24.5t28.5 33t32.5 43.5t31 45.5l32.5 49l29.5 44.5q-46 5 -72.5 9t-61.5 12t-52 20.5
t-17 29.5q0 4 4 4q5 0 31 -8.5t36 -10.5q99 -20 156 -25l69 100q-115 20 -176 51q-29 15 -29 28q0 12 11 12q7 0 29 -9.5t70.5 -24t112.5 -24.5q236 371 491 371q67 0 109.5 -31t42.5 -100q0 -64 -48.5 -119t-124.5 -90t-164.5 -54.5t-172.5 -19.5q-77 0 -120 5l-66 -97
q90 -7 177 -7q38 0 66 4t35 4q19 0 19 -9zM884 657q0 50 -38 78.5t-102 28.5q-69 0 -128.5 -24.5t-113 -75.5t-94.5 -105t-94 -137q51 -9 119 -9q54 0 110 6t119 23t111 43t79.5 70.5t31.5 101.5z" />
    <glyph glyph-name="afii10078" unicode="&#x43c;" horiz-adv-x="572" 
d="M235 198h97l51 -2l4 -3l4 -10l-1 -18v-20l-1 -17l-11 -11h-143v-13l4 -6v-16l6 -8v-40l8 -7l2 -13l-8 -14l-12 -1l-5 3l-3 -3l-3 3l-13 -3l2 -3l-2 1l-27 5l-4 -3l-34 -2l-3 2l-9 3l-4 11l4 12l-7 6l4 38v42l-27 -3l-46 -5l-3 1l-9 -1l-14 13l2 22l-2 18l7 35l4 6l54 -5
l28 2v82h-79l-8 8l-1 12l-4 35l-1 12l3 8l3 1l37 2h50l3 26l-6 21l3 28l5 11l-5 42l3 8l-3 2l3 3l-1 10l4 8l8 2l-3 12v111l-5 39l5 18l4 3l73 6l37 2h142v-3l37 -7l12 -3l14 -6l20 -15l11 -13l8 -8l10 -9l-2 -3l5 -1l15 -21l2 2l13 -14l2 -15l-3 -3l1 -24h3l2 -12l-3 -2
l-3 -19l-7 -34l-2 -32l-5 -21l-3 -3l3 -5l-4 -11l-5 -10l2 -8l-3 -3l-2 -9l-8 -9l2 -2l-5 -11l-5 -6l2 -2l-14 -14l3 -1l-3 -5l-24 -14l-8 -5l-35 -26l-17 -5l-8 -3l-23 -9l-6 -4l-13 -3l-15 -3h-30l-17 -4l-12 -3l-5 -5l-5 5l-6 -5h-17l-4 -3l-2 -57v-2zM340 614l-6 1l-9 4
l-62 -8l-15 -3l-4 -57v-56l1 -13l-3 -49l2 -41l1 -31l6 -3l21 3l39 9l15 7l2 4l11 2l9 3l11 2l31 16l8 7l2 9l3 8l6 17l-2 20l7 20v16l3 3l-3 28v3l1 3h2l-2 6h-3v23l-7 7v6l-12 11l-3 3l-3 9l-5 2l2 1h-30l-14 6v2z" />
    <glyph glyph-name="afii10079" unicode="&#x43d;" horiz-adv-x="530" 
d="M351 203q-3 -14 -17.5 -17.5t-47.5 -3.5q-46 0 -74 -2q-26 -2 -33 -2l-5 -108q-3 -77 -33 -77q-14 0 -17 14t-3 54v7v109q-6 0 -46 4q-5 0 -20.5 0.5t-22 1.5t-15.5 3t-13 7.5t-4 13.5v4q2 15 121 21q1 29 1 80q-6 0 -17 -1q-75 -6 -75 26v4q1 10 21 13t72 4v36
q0 57 -1.5 143.5t-1.5 104.5q0 30 15.5 48t40.5 21q5 1 16 1q62 0 135 -40t126 -106.5t53 -133.5q0 -43 -38 -68.5t-125 -38.5q-60 -10 -158 -10q0 -6 -1 -34.5t-2 -46.5h16h42q12 0 21 -0.5t21.5 -1.5l25.5 -2q43 -4 43 -23v-4zM438 446q0 66 -80.5 135.5t-152.5 69.5
q-11 0 -18 -10.5t-7 -22.5q0 -17 1.5 -64.5t1.5 -67.5q0 -23 2 -67.5t2 -58.5q75 0 156 12q34 5 55 13.5t28.5 20t9.5 19.5t2 21z" />
    <glyph glyph-name="afii10080" unicode="&#x43e;" horiz-adv-x="611" 
d="M590 655q0 11 -21 17.5t-51 6.5h-5q-46 -4 -195 -15q-67 -5 -90 -10q-2 -16 -3 -44l-11 -169q29 7 106 42.5t117 58.5l60 36t46 30t36 28t11 19zM249 213l-54 -2q-4 -26 -9 -100q0 -12 -2 -36l-3 -36q-1 -20 -3.5 -29.5t-13 -18.5t-31.5 -9q-25 0 -33 7.5t-8 28.5
q0 13 1 21l12 171h-38q-34 1 -47 8t-16 24q0 12 12.5 24.5t35.5 12.5h60q0 6 2 22q2 18 2 24q-21 -3 -56 -3q-36 0 -43 25q4 26 52 47l56 19q6 20 10 70l3 34q9 87 9 120v9q-36 -9 -73 -10h-9q-22 0 -30 7t-8 27q2 12 14 23.5t30 15.5q49 11 151 21q196 22 284 22h7
q81 -1 127 -25.5t46 -56.5q-1 -34 -61.5 -88.5t-146.5 -102.5q-92 -52 -244 -113l-28 -11l-8 -72q37 0 52 2l181 7q30 2 48 2q49 0 58 -27q-2 -17 -20 -31t-49 -16q-5 -1 -99 -2q-8 0 -28 -0.5t-33 -0.5q-25 0 -59 -4z" />
    <glyph glyph-name="afii10081" unicode="&#x43f;" horiz-adv-x="387" 
d="M396 688q0 8 -5 13t-17.5 7t-21 2.5t-26.5 0.5h-8q-94 0 -178 -22q-2 -20 -4 -74.5t-3 -72.5q-8 -119 -8 -130q18 10 41 27.5l37 28.5t44.5 38l36.5 32q110 97 112 150zM115 222q-4 -127 -9 -182q0 -3 -0.5 -15.5t-1.5 -17.5t-3.5 -12.5t-8.5 -10.5t-15 -3q-16 0 -20 9.5
t-3 37.5l9 193h-14q-35 1 -37 21q0 5 11.5 13.5t25.5 9.5q2 0 7.5 0.5t8.5 0.5l2 61q-47 -12 -48 11q0 10 7.5 17.5t21.5 16t20 14.5q9 30 12 152q2 62 10 143q-35 -11 -55 -12q-15 -1 -21 3t-6 16q1 11 6 18t20 11q39 10 106 20q127 19 186 18q131 -3 127 -65
q-2 -28 -40.5 -81.5t-94.5 -100.5q-113 -95 -196 -150q-4 -41 -5 -89q30 0 43 2q13 1 43 2.5t52.5 3t31.5 1.5q7 2 25 2q40 2 43 -14v-4q0 -26 -44 -30q-4 -1 -14 -1q-6 -2 -16 0l-82 -3q-6 0 -13.5 -0.5t-27.5 -2t-43 -3.5z" />
    <glyph glyph-name="afii10082" unicode="&#x440;" horiz-adv-x="514" 
d="M513 692q1 16 -18 20.5t-55 4.5q-158 0 -253 -21q-3 -19 -4 -76t-2 -75l-4 -69q0 -6 -2.5 -26.5t-1.5 -32.5q84 40 201 125q60 43 99 84.5t40 65.5zM163 225l-6 -2q-3 -98 -11 -186q-2 -7 -2.5 -19t-1 -19t-7 -12.5t-18.5 -5.5q-13 0 -17 6.5t-4 25.5l11 211l-81 -4
q-7 0 -12 1t-8.5 3t-5.5 3.5t-3.5 5t-2 5.5t-1 5.5t-0.5 4.5q2 15 47 15h69l2 77q-75 -20 -85 -20q-22 0 -22 11q1 18 31 31l80 28q9 28 12 151q3 70 12 149q-45 -14 -79 -14q-20 0 -20 16q0 18 27 27q76 16 178 27t165 11q89 0 125.5 -14.5t36.5 -44.5q0 -20 -51 -82.5
t-118 -108.5q-110 -77 -241 -153q-1 -40 -3 -88h12q40 0 130 6q1 0 4 0.5t5 0.5q16 1 30.5 2.5t21 2t10.5 0.5q27 0 36 -16q0 -31 -19 -31h-49q-65 0 -125 -4z" />
    <glyph glyph-name="afii10083" unicode="&#x441;" horiz-adv-x="485" 
d="M320 228q-23 -45 -130 -45q-56 -236 -213 -236q-33 0 -57 19t-24 58t15.5 59t42.5 20q30 0 30 -28q0 -6 -1.5 -11.5t-4.5 -10.5t-5 -7.5l-7 -8.5t-6 -7q-11 -12 -11 -30q0 -12 11.5 -19.5t28.5 -7.5q24 0 44 10t34 30t24.5 38.5t18.5 47t12 44t9 40.5h-33q-64 0 -87 -3
q7 22 22.5 31t27.5 9q11 0 37.5 1t42.5 1l14 76q-63 2 -114 7q12 30 56 30q25 0 67 -2l9 48q19 101 45.5 174.5t51.5 101.5q-61 -2 -106 -16.5t-66 -34t-30 -35.5t-9 -28q0 -18 16.5 -36t16.5 -30q0 -22 -26 -22q-13 0 -25.5 15t-12.5 47q0 12 5 29t22.5 43t45 47.5t79 38.5
t118.5 21l55 56l9 -3q-21 -38 -30 -53q201 -15 201 -172q0 -92 -76.5 -159.5t-214.5 -67.5h-24l-14 -74h4q87 3 110 9l1 -2zM462 504q0 77 -46.5 112t-105.5 37q-14 -23 -37 -101t-40 -177l-8 -46h15q222 0 222 175z" />
    <glyph glyph-name="afii10084" unicode="&#x442;" horiz-adv-x="660" 
d="M301 698l153 -3l34 -5l29 -7l12 -6l29 -19l9 -9l-4 3l11 -10l9 -7l11 -11v-1l24 -32l2 -24l-2 -1h4l8 -36l-3 -15v-3l-7 -31q0 -4 -1 -15t-1 -16l-5 -21l2 -1l-7 -14l-2 -8l-2 -2v-6l1 -4l-4 -5v-3l-9 -16l-3 -5h9l-35 -37l-34 -17h1l-8 -5l3 1q-36 -24 -40 -27l-24 -5
l-3 -2l-24 -8l-7 -4l-19 -4l-15 -3h-34l-10 -2h-5l-15 -3l-15 1q0 -4 -0.5 -17t-0.5 -17l2 -6h100l7 1l13 -1l30 -2l12 -3l3 -14l1 -36h-1l-2 -41l-10 -6l-10 -2l-10 2l-6 -4h-57l-12 -3l-18 1h-31v-57l2 -23l-12 -22h-22l-15 -3h-14l-20 3l-1 -1l-50 -2l-8 2l-29 8l-6 20
v11l-6 6l6 40v17h-21l-43 -2h-24l-9 42q0 4 -0.5 11t-0.5 9l4 3l-1 8v3l-4 20l23 15h69v51q-6 -1 -18 -0.5t-16 -0.5l-26 -1l-25 14l2 24l4 20v-1l5 40l13 10l49 1l14 -2l1 8l-6 20l3 29l5 8l1 1l-5 29l1 26v8l9 18v102q0 3 -2 17.5t-2 21.5l4 20l18 17l90 6zM385 576h-3
l-8 3l-48 -7l-3 -38v-52l1 -13l-3 -46q0 -6 1 -19t1 -18v-10l25 -2q2 1 7 2t9 2l4 1l20 8h2l9 3l5 1l27 21h-2l5 13q0 1 1.5 5t2.5 6l-2 16l7 22v19l2 1l-3 29l-1 2v19l-7 7v6l-5 3l-8 7h-20z" />
    <glyph glyph-name="afii10085" unicode="&#x443;" horiz-adv-x="580" 
d="M564 501q0 -60 -47.5 -128t-117.5 -116q-112 -77 -189 -68q2 -61 4 -76l62.5 7t63.5 6q12 0 17.5 -0.5t12 -7t6.5 -18.5q0 -6 -5 -9.5t-17.5 -6.5t-17.5 -5q-64 -23 -108 -25q1 -17 4 -38t3 -28q0 -6 -12 -6q-53 0 -64 66q-45 -5 -64 -5q-28 4 -28 26q0 24 55 34
q2 0 29 5q-4 29 -4 81q-31 -8 -78 9q-7 2 -11 17q-3 19 12 26q11 4 41.5 4.5t37.5 2.5v31q0 97 7 151.5t30 54.5q12 0 27 -12t15 -24q0 -5 -5.5 -17t-8.5 -26q-5 -34 -5 -89q0 -34 5 -66q27 -5 41 -2q67 7 159.5 88t92.5 151q0 60 -57 89.5t-149 29.5q-103 0 -139.5 -8
t-56.5 -31q-11 -13 -19.5 -39t-15.5 -43.5t-16 -17.5q-35 0 -34 13q2 35 16 66q10 23 13 28.5t14 24t20.5 24t28.5 17.5t42 15.5t57 7.5t77 4q44 0 99.5 -10.5t87.5 -28.5q40 -20 64.5 -56t24.5 -72z" />
    <glyph glyph-name="afii10086" unicode="&#x444;" horiz-adv-x="484" 
d="M-20 71q-7 -1 -11 24t-5 54q0 28 7 28q6 0 11 1t10 1q2 0 5.5 -0.5t6.5 -0.5q1 0 14 2.5t21 2.5h10l27 116l40 173.5l22 97.5l6 22q27 56 73 56q5 0 12 -0.5t12 -0.5q8 0 15.5 0.5t11.5 0.5h5q5 0 14 -1t12 -1q2 0 13.5 1.5t20.5 1.5q58 0 114.5 -54.5t56.5 -122.5
q0 -91 -69 -150t-217 -100l-9 -33h10q8 0 28 0.5t27 0.5q87 0 88 -19q0 -3 -1 -6l-1 -3q0 -1 3.5 -8t7 -19t3.5 -23v-4q0 -21 -10 -21q-1 0 -15 1t-17 1q-78 -10 -150 -11q-16 -61 -16 -76q0 -30 -38 -30q-10 0 -38 4.5t-45 5.5q-23 2 -29 8q-5 16 -5 20q0 2 13 61h-44z
M249 364q103 19 103 100q0 26 -20.5 43.5t-41.5 17.5q-3 0 -6 -15q-11 -58 -35 -146z" />
    <glyph glyph-name="afii10087" unicode="&#x445;" horiz-adv-x="456" 
d="M17 90q-10 0 -28.5 23t-18.5 47v4q0 10 5 10q1 0 3 -1t3 -1q2 0 8.5 1t7.5 1q46 0 69 1q76 331 82 360q2 6 4 20q4 22 7.5 31t10.5 19t23.5 12.5t39 4t65.5 1.5q65 0 106 -34q28 -24 46 -61t18 -65q0 -46 -19.5 -86t-70.5 -82q-10 -9 -20.5 -15.5t-24.5 -12.5t-22 -10
t-26 -8.5t-24 -6.5t-28.5 -7t-27.5 -6t-7.5 -2t-4 -4.5t-2 -6.5t-2.5 -12.5l-4 -18.5q-2 -6 -2 -7q5 0 25.5 1t30.5 1h33q85 0 86 -15q0 -9 5.5 -21t5.5 -27q0 -19 -9 -19q-2 0 -5.5 1t-6.5 1q-63 -7 -75 -7h-6q-8 0 -22 1.5t-21 1.5q-5 0 -27 -2t-32 -3q-2 -12 -2 -14
q-4 -19 -10 -34.5t-9.5 -23t-3.5 -9.5t1.5 -6t1.5 -5q0 -11 -11 -23t-26 -12q-22 0 -47.5 14t-25.5 25q0 23 14 87h-30zM290 514q-29 0 -31 -3q-1 -1 -4.5 -10.5t-9 -29t-8.5 -39.5q-4 -24 -7.5 -39.5t-4.5 -22t-1 -20.5q0 -3 7 -3q45 0 77 28t32 96q0 43 -50 43z" />
    <glyph glyph-name="afii10088" unicode="&#x446;" horiz-adv-x="748" 
d="M491 158q0 -16 -11.5 -25t-27.5 -9q-105 -3 -172 -4h-7q-7 -117 -45 -122q-11 -2 -22 6t-12 20q-1 14 -0.5 23.5t2 33t1.5 37.5q-88 -2 -107 0q-28 2 -30 28q0 4 0.5 7.5t3 5.5t5 3.5t7.5 2.5t8.5 1.5l11 1.5t12.5 2q27 4 90 7q1 26 -2 63q-21 2 -29 3t-32.5 7.5
t-37 14.5t-24 24.5t-11.5 38.5q0 20 8.5 36t27 28.5t29 18.5t35.5 15l26 10q6 43 8 102l-2 73q-5 -1 -22 -2t-24.5 -2.5t-21.5 -4t-27 -7t-27 -11.5q-16 -8 -35.5 -24l-32.5 -27t-16 -11q-12 0 -19 9.5t-7 22.5q0 14 30.5 35.5t77.5 38.5q128 47 262 44q130 -2 236 -30
q79 -21 132.5 -58t53.5 -86q0 -58 -48 -108t-126 -86q-111 -51 -222 -54q-71 -2 -76 -2l-5 -69q1 0 5 0.5t6 0.5q94 4 164 4q19 0 29 -8t10 -18zM704 478q0 40 -44 70t-110 48q-111 30 -202 30q-38 0 -82 -10q-1 -54 -2 -88l-2 -78q56 -14 60 -54q3 -26 -24 -30
q-11 -2 -30 14q0 -28 8 -84q11 -3 54 -6q36 -2 96.5 11t113.5 37q65 29 114.5 71.5t49.5 68.5zM190 292q3 24 -2 92q-33 -2 -57.5 -19t-26.5 -39q-1 -7 3 -11.5t8.5 -6.5t14 -5.5t12.5 -4.5q19 -8 48 -6z" />
    <glyph glyph-name="afii10089" unicode="&#x447;" horiz-adv-x="500" 
d="M188 45q0 -16 2 -30q-32 -21 -78 -21q-2 0 -7 0.5t-8 0.5q0 37 10 87l22 115h-74l32 49h51l12 55h-68l33 49h45l43 205q7 37 7 54q0 29 -13.5 37t-49.5 8l30 40q94 17 221 17q181 0 181 -143q0 -121 -95 -194.5t-233 -73.5h-17l-11 -54h111l-30 -49h-91l-11 -53
q-14 -76 -14 -99zM244 350h24q103 0 161.5 52.5t58.5 165.5q0 33 -11.5 54.5t-32 30t-35 10.5t-34.5 2q-35 0 -52.5 -9.5t-24.5 -42.5z" />
    <glyph glyph-name="afii10090" unicode="&#x448;" horiz-adv-x="668" 
d="M128 230h-31q-26 0 -45 19t-19 45t19 44t45 18h31v258q0 10 -9 10h-56v36h335q99 0 162.5 -61t63.5 -154t-63.5 -154t-162.5 -61h-39q-26 0 -45 19t-19 45t19 44t45 18h31q41 0 66 26.5t25 62.5q0 37 -25 63t-66 26h-122v-376h130v-62h-130v-96h-140v96h-80v62h80v72z
" />
    <glyph glyph-name="afii10091" unicode="&#x449;" horiz-adv-x="701" 
d="M115 385h14v222q0 9 -10 9h-59v44h364q104 0 168.5 -60.5t64.5 -159.5q0 -98 -64.5 -158.5t-168.5 -60.5h-10q-36 0 -59 24.5t-23 57.5q0 31 22 56.5t60 25.5q25 0 41 15.5t16 39.5t-15.5 40t-39.5 16h-106v-329h124v-80h-124v-87h-181v87h-81v80h81v54h-14
q-36 0 -59 24.5t-23 57.5q0 31 22 56.5t60 25.5z" />
    <glyph glyph-name="afii10092" unicode="&#x44a;" horiz-adv-x="484" 
d="M51 72q-11 -1 -26 29t-16 59v7q0 11 5 11q2 0 9 -1t8 -1q2 0 9 2l7 3q2 0 10.5 -0.5t11.5 -0.5q9 0 19 2l2 32v151q0 41 1.5 97.5t1.5 68.5q0 11 -1.5 28t-1.5 24q0 8 2.5 15.5t5 11.5t4.5 8l3 3q9 18 17 22t30 4h21q10 0 18.5 0.5t13 0.5h5.5q5 0 13.5 -1t12.5 -1
q2 0 14 1.5t20 1.5q35 0 79.5 -20.5t75.5 -53.5q62 -65 62 -118q0 -88 -56.5 -138t-178.5 -93v-36q41 2 44 3q19 1 53 1q36 0 51.5 -4.5t17.5 -16.5q0 -2 2 -4l1 -2q0 -1 5 -8.5t10 -19t5 -22.5v-10q0 -15 -13 -15q-3 0 -13 0.5t-15 0.5q-3 0 -26.5 -5t-39.5 -6
q-9 -1 -76 -1h-8v-58q0 -5 -0.5 -10.5t-0.5 -7.5q0 -3 1.5 -8t1.5 -7q0 -23 -33 -23q-34 0 -101 15q-9 2 -12 4t-4.5 6.5t-3.5 7.5q-5 6 -7 72h-40zM253 368q30 4 56 29t26 57q0 28 -25 49.5t-51 21.5q-4 0 -4 -13q0 -8 1 -18t1 -13t-1 -26t-1 -39q0 -10 -2 -48z" />
    <glyph glyph-name="afii10093" unicode="&#x44b;" horiz-adv-x="639" 
d="M582 499q0 18 -59 46q-48 23 -114 45q-24 8 -54 15q-29 6 -66 12q-12 2 -33 -4q0 -30 2 -50q2 -32 4 -50l10 -90h24q31 0 46 1q25 0 45 5q92 14 127 26q67 19 68 44zM267 223l-1 -9v0v-192q0 -15 -16 -24q-15 -9 -35 -9q-25 0 -35 77q-3 31 -5 125v33h-9h-120
q-13 0 -23 13q-9 13 -9 28q0 11 21 15q17 2 59 4q27 0 53 -1h28v78q-3 8 -10 16q-6 8 -8 17q0 10 11 18q14 10 15 11v117q0 62 2 78q1 24 13 44q5 11 21 17q10 3 33 5q28 0 76 -11q55 -11 113 -32q77 -25 124 -53q72 -42 73 -89q0 -42 -48 -72q-57 -33 -203 -57
q-12 0 -21 -2h-19h-34q-23 0 -36 2l-6 -88h15h31h26h21h17h13q50 0 53 1q41 0 43 -24q0 -21 -16 -34q-15 -12 -40 -12q-8 0 -26 3q-30 5 -52 7h-89z" />
    <glyph glyph-name="afii10094" unicode="&#x44c;" horiz-adv-x="613" 
d="M358 169q0 -13 -7 -19.5t-15.5 -7.5t-30.5 -2q-29 0 -81 0.5t-77 0.5q-11 -50 -11 -98q0 -32 -7.5 -44.5t-32.5 -9.5q-5 1 -8.5 2.5t-6 4t-4.5 5t-3 7t-1.5 7t-1 8.5t-0.5 8.5v9.5v9q0 31 16 91h-39q-18 0 -28 5t-10 12q0 18 5.5 24.5t18.5 6.5q35 0 68 1q23 66 34 91
q-18 4 -23 24.5t2 28.5q14 21 22 28t16 8t15 7q9 31 31 68.5t59.5 79.5t83.5 76.5t109 57t130 23.5q63 1 107 -43.5t44 -122.5q0 -72 -46 -125.5t-117.5 -81t-140.5 -40.5t-134 -13q-39 0 -112 10q-15 -44 -23 -75q87 3 138 3q12 0 20 -0.5t19 -3t16.5 -8t5.5 -13.5z
M667 518q1 61 -27.5 83.5t-77.5 22.5q-46 0 -107.5 -24t-111.5 -67q-87 -76 -139 -205q57 -16 101 -15q360 18 362 205z" />
    <glyph glyph-name="afii10095" unicode="&#x44d;" horiz-adv-x="500" 
d="M159 350l68 260q10 40 10 53q0 25 -9 38q92 10 195 10q87 0 148.5 -35.5t61.5 -115.5q0 -112 -100 -185.5t-249 -73.5h-42l-14 -55h182l-30 -49h-165l-13 -53q-19 -74 -19 -95t10 -35q-52 -36 -102 -40q-8 17 -8 51q0 23 10 63l27 109h-65l32 49h46l14 55h-65l33 49h44z
M333 659l-81 -317h33q29 0 54.5 2.5t63.5 14t64.5 31t46 58t19.5 91.5q0 34 -11.5 58.5t-26.5 36.5t-35.5 19t-33 8.5t-25.5 1.5z" />
    <glyph glyph-name="afii10096" unicode="&#x44e;" horiz-adv-x="613" 
d="M281 212h14h16t14.5 -1t15.5 -3.5t11 -6.5t8.5 -11t2.5 -16q-1 -33 -16 -41t-55 -9q-7 0 -19.5 0.5t-18.5 0.5h-83q-6 -31 -6 -62q0 -43 -12.5 -60.5t-50.5 -11.5q-27 4 -34.5 22.5t-7.5 54.5q0 8 0.5 17.5t1.5 21t1 18.5q-27 0 -42 12t-15 28q0 28 8 35t33 7q14 0 44 1
l20 55q-14 14 -15 38.5t6 32.5q21 31 48 41q11 31 32 66t56.5 73t78.5 69t101 51t119 21q66 1 112 -45t46 -127q0 -70 -43.5 -123t-111 -80t-133 -40t-126.5 -13q-27 0 -83 8l-8 -24q33 1 91 1zM590 485q1 41 -18 55.5t-52 14.5q-35 0 -87 -20.5t-92 -54.5
q-67 -58 -110 -149q54 -9 59 -9q74 0 140 17t112.5 55t47.5 91z" />
    <glyph glyph-name="afii10097" unicode="&#x44f;" horiz-adv-x="500" 
d="M165 659v-317h35q194 0 194 174q0 71 -45 109t-117 38zM70 87v109h-65l20 49h45v55h-65l21 49h45v261q0 62 -21 91q88 10 192 10q106 0 175.5 -43.5t69.5 -140.5q0 -95 -76.5 -160.5t-202.5 -65.5h-43v-55h184l-18 -49h-167v-174q-18 -31 -44.5 -59t-43.5 -40l-18 -13
l-16 9q3 4 7.5 12.5t12.5 51.5t8 103z" />
  </font>
</defs>
</svg>
